<svg id="b7543661-7b7d-4607-99c8-53cea1a3e538" data-name="Border" xmlns="http://www.w3.org/2000/svg" viewBox="0 0 1600 25"><title>Border</title><path d="M1599.88817,24.32332c-5.03149,0-9.38372-10.47637-14.41521-10.47637-3.77356,0-8.22639,10.47634-12,10.47634-3.92456,0-9.88681-10.04463-13.81138-10.04463-4.8302,0-7.62258,10.0446-12.45278,10.0446-5.13208,0-9.92457-10.0446-15.05665-10.0446-3.92444,0-8.18859,10.0446-12.113,10.04461h-11.3208c-4.37744,0-9.88684-8.74948-14.26428-8.74948-4.98108,0-8.83008,8.74949-13.81116,8.74949-4.07556,0-7.9246-9.61292-12.00016-9.61292-4.37732,0-8.981,9.61293-13.35836,9.61293-4.22644,0-6.52841-8.31778-10.75485-8.31778-3.4718,0-8.86795,8.31778-12.33975,8.31778-3.0188,0-6.71692-10.04464-9.73572-10.04464-3.62256,0-6.566,10.04464-10.1886,10.04464-4.22644,0-7.32081-9.18121-11.54725-9.18121-4.98108,0-11.09423,9.18122-16.07531,9.18122-4.37744,0-8.7548-7.88608-13.13224-7.88608-3.62268,0-7.2452,7.88608-10.86788,7.88608-3.77356,0-7.09441-9.61294-10.868-9.61294-3.92456,0-8.30171,9.61294-12.22627,9.61294s-8.302-8.74951-12.22656-8.74951-7.396,8.74951-11.32056,8.74951c-3.1698,0-6.56624-9.61294-9.736-9.61294-3.92456,0-7.62248,9.61294-11.547,9.61294-5.28308,0-7.96233-8.3178-13.24541-8.31779-3.0188,0-8.64143,8.3178-11.66023,8.3178-4.22644,0-8.90579-11.77152-13.13223-11.77152-3.92456,0-7.39609,11.77152-11.32065,11.77152-3.77356,0-7.6605-12.63494-11.43406-12.63494-4.52832,0-8.94326,12.63494-13.47158,12.63494-4.37732,0-9.32092-10.04466-13.69824-10.04466-4.8302,0-9.09424,10.04466-13.92444,10.04466-3.77356,0-10.8303-9.18123-14.60386-9.18123-5.736,0-8.1885,9.18123-13.92446,9.18123-4.37732,0-9.20765-11.3398-13.585-11.3398-4.07544,0-7.698,11.3398-11.77343,11.3398-6.3396,0-9.736-9.18123-16.07563-9.18123-4.52832,0-11.99981,9.18123-16.52813,9.18123-5.434,0-10.9813-10.04466-16.41526-10.04466-4.07544,0-8.03762,10.04467-12.11306,10.04467-4.52832,0-10.52844-10.47638-15.05676-10.47638-5.283,0-9.09424,10.47638-14.3772,10.47638-5.13208,0-10.37751-9.613-15.50959-9.613-4.37732,0-8.64135,9.613-13.01873,9.613-4.22644,0-8.22653-8.74952-12.453-8.74952-4.32483,0-8.87589,8.74951-13.20071,8.74951-4.279,0-9.01086-9.61294-13.28985-9.61294-3.9245,0-7.39613,9.61294-11.32063,9.613-5.52441,0-12.36251-9.61295-17.88692-9.61295-4.73975,0-8.16581,9.613-12.90556,9.613-4.37738,0-6.83027-7.02267-11.20765-7.02267-4.07544,0-10.07537,7.02265-14.15081,7.02265-4.67926,0-7.32087-10.04465-12.00013-10.04465-3.62268,0-9.28289,10.04465-12.90557,10.04465-3.77356,0-7.09446-10.47636-10.868-10.47636s-7.99984,10.47636-11.77346,10.47636h-8.60376c-3.92456,0-6.9435-9.61294-10.86806-9.61294s-8.75462,9.61294-12.67912,9.61294S822.18991,13.847,818.26541,13.847c-4.52832,0-7.35838,10.47636-11.8867,10.47636-3.9245,0-6.6039-10.90808-10.5284-10.90808-4.22644,0-9.698,10.90808-13.92442,10.90808-3.92456,0-8.302-10.04465-12.22652-10.04465-5.52313,0-10.5933,10.04465-16.11644,10.04465-3.68438,0-8.38785-10.47636-12.07224-10.47636-3.92456,0-6.83,10.47636-10.7546,10.47636-4.52832,0-8.151-12.20322-12.67936-12.20322-4.40442,0-9.71444,12.20322-14.11886,12.20322-4.8031,0-7.90823-12.20322-12.71133-12.20322-4.448,0-10.594,12.20322-15.042,12.20322-3.85394,0-7.93429-10.04465-11.78823-10.04465-4.66266,0-9.09886,10.04465-13.76152,10.04465-4.39392,0-8.67475-10.47636-13.06867-10.47636-4.4635,0-9.04,10.47636-13.50353,10.47636-4.14026,0-7.48828-10.90808-11.62854-10.90808-3.92456,0-8.64136,10.90808-12.56592,10.90808-3.58093,0-8.6456-10.47636-12.22654-10.47636-4.41906,0-7.35439,10.47636-11.77346,10.47636-4.46179,0-9.57606-10.04465-14.03786-10.04465-3.5382,0-6.42393,10.04465-9.96214,10.04465-3.78558,0-6.62963-9.61294-10.41521-9.61294-4.06342,0-9.06849,9.61294-13.13191,9.61294-3.78064,0-7.87991-10.90808-11.66055-10.90808-4.06842,0-7.81821,10.90808-11.88666,10.90808-4.22644,0-6.98124-10.90808-11.20768-10.90808-4.42651,0-10.32464,10.90808-14.75115,10.90808-4.02631,0-7.71311-10.04465-11.73941-10.04465-4.72242,0-9.78436,10.04465-14.50678,10.04465-4.54513,0-9.13677-9.61294-13.6819-9.61294-4.683,0-9.31953,9.61294-14.00254,9.61294-4.16266,0-8.32537-8.74951-12.488-8.74951-4.26089,0-8.52174,8.74951-12.78263,8.74951-3.58814,0-8.08206-11.33979-11.6702-11.33979-3.8992,0-6.89264,11.33979-10.79184,11.33979-4.03381,0-8.60831-10.90808-12.64212-10.90808-4.29343,0-8.04617,10.90808-12.3396,10.90808-3.79578,0-6.959-11.33979-10.75474-11.33979-3.90228,0-8.43722,11.33979-12.3395,11.33979-3.92453,0-7.50956-11.33979-11.43409-11.33979-4.52829,0-9.39611,11.33979-13.9244,11.33979-4.645,0-6.22309-11.77151-10.86805-11.77151-3.355,0-9.77691,11.77151-13.13195,11.77151-4.49051,0-8.86811-10.90808-13.35861-10.90808-3.5095,0-7.1319,10.90809-10.64139,10.90809H243.058c-3.92453,0-7.736-10.04465-11.66051-10.04465-3.62265,0-7.3584,10.04465-10.98105,10.04465-4.95325,0-8.17891-12.77884-13.13215-12.77884-4.70713,0-11.14185,12.77884-15.849,12.77884-4.83019,0-8.75481-11.052-13.585-11.052-4.26687,0-9.4393,11.052-13.70617,11.052-4.48786,0-7.16446-9.90076-11.65232-9.90076-4.52829,0-10.86782,9.90076-15.39611,9.90076-5.15743,0-9.78608-9.90076-14.94351-9.90076-5.71051,0-11.9498,9.90077-17.66031,9.90077H89.54849c-5.283,0-10.56613-8.74952-15.84912-8.74952-4.37736,0-8.75459,8.74952-13.132,8.74952S50.00125,14.42256,45.6239,14.42256c-4.83019,0-7.84892,9.90076-12.67911,9.90076-5.22765,0-10.16871-9.32514-15.39636-9.32514-5.79123,0-11.869,9.32514-17.66028,9.32514,0-135.3008.3816,110.18048.3816-25.12033h1600Z" style="fill:#f8f8ff"/></svg>