<svg id="ac9de367-e42e-4958-ba6c-04f27ce177cf" data-name="Border 1" xmlns="http://www.w3.org/2000/svg" viewBox="0 0 1600.00002 49.12035"><title>Border</title><path d="M1600,49.12034c-5.03149,0-9.38372-10.47638-14.41521-10.47638-3.77356,0-8.22639,10.47634-12,10.47634-3.92456,0-9.88681-10.04462-13.81138-10.04463-4.8302,0-7.62258,10.0446-12.45278,10.0446-5.13208,0-9.92457-10.0446-15.05665-10.0446-3.92444,0-8.18859,10.0446-12.113,10.04461h-11.3208c-4.37744,0-9.88684-8.74948-14.26428-8.74947-4.98108,0-8.83008,8.74948-13.81116,8.74949-4.07556,0-7.9246-9.61292-12.00016-9.61292-4.37732,0-8.981,9.61292-13.35836,9.61292-4.22644,0-6.52841-8.31778-10.75485-8.31778-3.4718,0-8.868,8.31778-12.33975,8.31778-3.0188,0-6.71692-10.04464-9.73572-10.04464-3.62256,0-6.566,10.04465-10.1886,10.04465-4.22644,0-7.32081-9.18122-11.54725-9.18122-4.98108,0-11.09423,9.18122-16.07531,9.18122-4.37744,0-8.7548-7.88608-13.13224-7.88608-3.62268,0-7.2452,7.88608-10.86788,7.88608-3.77356,0-7.09441-9.61293-10.868-9.61293-3.92456,0-8.30171,9.61293-12.22627,9.61293s-8.302-8.7495-12.22656-8.7495-7.396,8.7495-11.32056,8.7495c-3.1698,0-6.56624-9.61293-9.736-9.61293-3.92456,0-7.62248,9.61293-11.547,9.61293-5.28308,0-7.96233-8.3178-13.24541-8.31779-3.0188,0-8.64143,8.3178-11.66023,8.3178-4.22644,0-8.90579-11.77151-13.13223-11.77151-3.92456,0-7.39609,11.77152-11.32065,11.77152-3.77356,0-7.6605-12.63495-11.43406-12.63495-4.52832,0-8.94326,12.63495-13.47158,12.63495-4.37732,0-9.32092-10.04467-13.69824-10.04467-4.8302,0-9.09424,10.04467-13.92444,10.04467-3.77356,0-10.8303-9.18124-14.60386-9.18124-5.736,0-8.1885,9.18124-13.92446,9.18124-4.37732,0-9.20765-11.33981-13.585-11.33981-4.07544,0-7.698,11.33981-11.77343,11.33981-6.3396,0-9.736-9.18124-16.07563-9.18124-4.52832,0-11.99981,9.18124-16.52813,9.18124-5.434,0-10.9813-10.04467-16.41526-10.04467-4.07544,0-8.03762,10.04468-12.11306,10.04468-4.52832,0-10.52844-10.47639-15.05676-10.47639-5.283,0-9.09424,10.47638-14.3772,10.47638-5.13208,0-10.37751-9.61295-15.50959-9.61295-4.37732,0-8.64135,9.61294-13.01873,9.61294-4.22644,0-8.22653-8.74951-12.453-8.74951-4.32483,0-8.87589,8.7495-13.20071,8.7495-4.279,0-9.01086-9.61293-13.28985-9.61293-3.9245,0-7.39613,9.61294-11.32063,9.61294-5.52441,0-12.36251-9.61294-17.88692-9.61294-4.73975,0-8.16581,9.61295-12.90556,9.61295-4.37738,0-6.83027-7.02266-11.20765-7.02267-4.07544,0-10.07537,7.02266-14.15081,7.02266-4.67926,0-7.32087-10.04466-12.00013-10.04466-3.62268,0-9.28289,10.04465-12.90557,10.04465-3.77356,0-7.09446-10.47636-10.868-10.47636S867.77364,49.12032,864,49.12032h-8.60376c-3.92456,0-6.9435-9.61293-10.86806-9.61293s-8.75462,9.61293-12.67912,9.61293S822.30176,38.644,818.37726,38.644c-4.52832,0-7.35838,10.47636-11.8867,10.47636-3.9245,0-6.6039-10.90807-10.5284-10.90807-4.22644,0-9.698,10.90807-13.92442,10.90807-3.92456,0-8.302-10.04465-12.22652-10.04465-5.52313,0-10.5933,10.04465-16.11643,10.04465-3.68439,0-8.38786-10.47636-12.07225-10.47636-3.92456,0-6.83,10.47637-10.7546,10.47637-4.52832,0-8.151-12.20323-12.67936-12.20323-4.40442,0-9.71444,12.20323-14.11886,12.20323-4.8031,0-7.90823-12.20323-12.71133-12.20323-4.448,0-10.594,12.20322-15.042,12.20322-3.85394,0-7.93429-10.04465-11.78823-10.04465-4.66266,0-9.09886,10.04466-13.76152,10.04466-4.39392,0-8.67475-10.47637-13.06867-10.47637-4.4635,0-9.04,10.47636-13.50353,10.47636-4.14026,0-7.48828-10.90807-11.62854-10.90807-3.92456,0-8.64136,10.90808-12.56592,10.90808-3.58093,0-8.6456-10.47637-12.22654-10.47637-4.41906,0-7.35439,10.47637-11.77346,10.47637-4.46179,0-9.57606-10.04466-14.03786-10.04466-3.5382,0-6.42393,10.04465-9.96214,10.04465-3.78558,0-6.62963-9.61293-10.41521-9.61293-4.06342,0-9.06849,9.61294-13.13191,9.61294-3.78064,0-7.87991-10.90808-11.66055-10.90808-4.06842,0-7.81821,10.90807-11.88666,10.90807-4.22644,0-6.98124-10.90807-11.20768-10.90807-4.42651,0-10.32464,10.90808-14.75115,10.90808-4.02631,0-7.71311-10.04466-11.73941-10.04466-4.72241,0-9.78436,10.04465-14.50677,10.04465-4.54514,0-9.13678-9.61293-13.68191-9.61293-4.683,0-9.31953,9.61294-14.00254,9.61294-4.16266,0-8.32537-8.74951-12.488-8.74951-4.26089,0-8.52174,8.74951-12.78263,8.74951-3.58814,0-8.08206-11.3398-11.6702-11.3398-3.8992,0-6.89264,11.33979-10.79184,11.33979-4.03381,0-8.60831-10.90807-12.64212-10.90807-4.29343,0-8.04617,10.90808-12.3396,10.90808-3.79578,0-6.959-11.3398-10.75474-11.3398-3.90228,0-8.43722,11.33979-12.3395,11.33979-3.92453,0-7.50956-11.33979-11.43409-11.33979-4.52828,0-9.39611,11.3398-13.9244,11.3398-4.645,0-6.22309-11.77151-10.86805-11.77151-3.355,0-9.77691,11.77151-13.13195,11.77151-4.49051,0-8.8681-10.90808-13.35861-10.90808-3.50949,0-7.1319,10.90808-10.64139,10.90808H243.16984c-3.92453,0-7.736-10.04466-11.66051-10.04466-3.62265,0-7.3584,10.04466-10.98105,10.04466-4.95325,0-8.17891-12.77885-13.13215-12.77885-4.70713,0-11.14185,12.77885-15.849,12.77885-4.83019,0-8.75481-11.052-13.585-11.052-4.26687,0-9.4393,11.052-13.70617,11.052-4.48786,0-7.16446-9.90075-11.65232-9.90075-4.52829,0-10.86782,9.90076-15.39611,9.90076-5.15743,0-9.78608-9.90076-14.94351-9.90076-5.71051,0-11.9498,9.90076-17.66031,9.90076H89.66034c-5.283,0-10.56613-8.74952-15.84912-8.74952-4.37736,0-8.75459,8.74952-13.132,8.74952S50.1131,39.21958,45.73575,39.21958c-4.83019,0-7.84892,9.90076-12.67911,9.90076-5.22765,0-10.16871-9.32514-15.39636-9.32514C11.86905,39.7952,5.79123,49.12034,0,49.12034,0-86.18047.3816,135.30081.3816,0h1599Z" style="fill:#f8f8ff"/></svg>