<svg id="baf47ded-1cfe-4aa9-bff9-be0ac1c6ee27" data-name="Layer 1" xmlns="http://www.w3.org/2000/svg" viewBox="0 0 1601.51697 165.59701"><title>illustrator-2</title><path d="M1600.414,87.82764l-2.98519.00557a22.08868,22.08868,0,0,0-22.04746,22.05606l-.047,31.881a22.0887,22.0887,0,0,1-22.04746,22.05607l-.82481.00153a22.08869,22.08869,0,0,1-22.12988-22.11919l.11412-82.512a22.0887,22.0887,0,0,0-22.12987-22.1192l-.81976.00153a22.08868,22.08868,0,0,0-22.04746,22.06114l-.0591,47.44705a22.08869,22.08869,0,0,1-22.04747,22.06114l-.8228.00154a22.08869,22.08869,0,0,1-22.12987-22.11617l.06335-50.86814a22.08869,22.08869,0,0,0-22.12987-22.11617l-.65543.00123a22.08869,22.08869,0,0,0-22.047,22.22839l.54126,85.55283a22.08869,22.08869,0,0,1-22.04705,22.22839l-1.65223.00309a22.0887,22.0887,0,0,1-22.12987-22.11937l.09386-67.508A22.08869,22.08869,0,0,0,1328.297,51.81656l-.8196.00153A22.08868,22.08868,0,0,0,1305.43,73.87923l-.04116,33.04366a22.08869,22.08869,0,0,1-22.04747,22.06114l-.8228.00153a22.08868,22.08868,0,0,1-22.12987-22.11616l.02978-23.90935a22.08871,22.08871,0,0,0-22.12988-22.11617l-.82626.00154a22.0887,22.0887,0,0,0-22.04746,22.05767l-.08268,58.93672a22.0887,22.0887,0,0,1-22.04746,22.05767l-.82353.00153a22.08868,22.08868,0,0,1-22.12987-22.11888l.11906-86.97915a22.08869,22.08869,0,0,0-22.12988-22.11888l-.82006.00153A22.08868,22.08868,0,0,0,1125.453,54.74476l-.082,65.80765a22.08868,22.08868,0,0,1-21.65478,22.05691l-.82282.01617a22.08869,22.08869,0,0,1-22.52256-22.11194l.01278-10.25893a22.08869,22.08869,0,0,0-22.12988-22.11617l-.82749.00155a22.08868,22.08868,0,0,0-22.04746,22.05643l-.04657,31.9314a22.08869,22.08869,0,0,1-22.09656,22.05647l-.824-.00029a22.0887,22.0887,0,0,1-22.08077-22.11965l.08346-59.55478A22.08869,22.08869,0,0,0,968.28441,60.39l-.62741.00117A22.0887,22.0887,0,0,0,945.61012,82.644l.20511,27.593a22.0887,22.0887,0,0,1-22.04688,22.25284l-1.12673.0021a22.08869,22.08869,0,0,1-22.12935-22.24451l.36923-52.32393a22.0887,22.0887,0,0,0-22.12935-22.24452l-1.3214.00247a22.08868,22.08868,0,0,0-22.04746,22.05834l-.11536,84.08317a22.08868,22.08868,0,0,1-22.04746,22.05834l-.82214.00154a22.0887,22.0887,0,0,1-22.12987-22.1196l.08366-59.70564a22.08868,22.08868,0,0,0-22.12987-22.1196l-.62742.00117A22.08868,22.08868,0,0,0,765.548,82.19193l.2051,27.593a22.08868,22.08868,0,0,1-22.04688,22.25282l-1.01254.00189a22.08869,22.08869,0,0,1-22.12826-22.35738l.63122-51.881A22.08869,22.08869,0,0,0,698.53,35.45147l-1.638.043a22.08867,22.08867,0,0,0-21.50912,22.0509l-.11559,84.61294a22.0887,22.0887,0,0,1-22.04747,22.05848l-.63463.00118a22.08869,22.08869,0,0,1-22.12884-22.30509l.62047-63.31994a22.08867,22.08867,0,0,0-21.90758-22.30439l-.5688-.00464A22.08869,22.08869,0,0,0,586.3317,78.38646l.01616,24.44673a22.08869,22.08869,0,0,1-22.36758,22.10153l-1.38133-.01745a22.08868,22.08868,0,0,1-21.80937-21.94916L540.59375,71.569a22.08869,22.08869,0,0,0-22.12946-21.95089l-.99151.00185a22.08868,22.08868,0,0,0-22.04746,22.05753l-.09921,70.42a22.08868,22.08868,0,0,1-21.9843,22.05732l-.08853.00042a22.08869,22.08869,0,0,1-22.19242-21.92154l-.4471-59.1676A22.08868,22.08868,0,0,0,428.4993,61.14427l-1.02289.00122a22.08869,22.08869,0,0,0-22.06227,22.06116l-.03392,27.2299a22.08868,22.08868,0,0,1-22.04746,22.06113l-.59324.00111A22.08869,22.08869,0,0,1,360.6111,110.155l.60128-52.04683a22.08869,22.08869,0,0,0-22.32659-22.34256l-1.539.01668A22.08869,22.08869,0,0,0,315.49769,57.958l.33536,83.889a22.08868,22.08868,0,0,1-21.655,22.17273l-.41222.00809a22.08868,22.08868,0,0,1-22.52213-22.03536l-.12933-58.22107a22.08869,22.08869,0,0,0-22.12984-22.03959l-.587.0011A22.08869,22.08869,0,0,0,226.35007,83.794l-.04756,38.18938A22.08869,22.08869,0,0,1,204.593,144.0413l-.88457.01519a22.08869,22.08869,0,0,1-22.46766-21.99062l-.10005-23.30778a22.08869,22.08869,0,0,0-22.117-21.99386l-.71386.00092A22.0887,22.0887,0,0,0,136.25,98.74475l-.21911,44.37021a22.08868,22.08868,0,0,1-22.04649,21.97957l-1.28318.00244A22.08868,22.08868,0,0,1,90.5706,143.04344l-.0943-59.30255A22.08868,22.08868,0,0,0,68.34514,61.68737l-.88719.0017A22.08869,22.08869,0,0,0,45.41178,83.75021L45.386,104.45488a22.08868,22.08868,0,0,1-22.29852,22.06018h0A22.08869,22.08869,0,0,1,1.20911,104.5793L.50345,1.98426,1601.51651.5" style="fill:#f4f4f4"/></svg>