<?xml version="1.0" encoding="UTF-8"?>
<svg width="753px" height="260px" viewBox="0 0 753 260" version="1.1" xmlns="http://www.w3.org/2000/svg" xmlns:xlink="http://www.w3.org/1999/xlink">
    <!-- Generator: Sketch 52.2 (67145) - http://www.bohemiancoding.com/sketch -->
    <title>iyzico_newlogo_2018</title>
    <desc>Created with Sketch.</desc>
    <g id="Page-1" stroke="none" stroke-width="1" fill="none" fill-rule="evenodd">
        <g id="iyzico_newlogo_2018" fill="#00BED6">
            <path d="M351.5,167.9 L278.3,167.9 L363.6,82.6 C368.5,77.7 370,70.3 367.3,63.9 C364.6,57.5 358.4,53.3 351.4,53.3 L245.4,53.3 C235.9,53.3 228.2,61 228.2,70.5 C228.2,80 235.9,87.7 245.4,87.7 L310,87.7 L224.7,173 C219.8,177.9 218.3,185.3 221,191.7 C223.7,198.1 229.9,202.3 236.9,202.3 L351.5,202.3 C361,202.3 368.7,194.6 368.7,185.1 C368.7,175.6 361,167.9 351.5,167.9 Z" id="Path"></path>
            <path d="M19.4,202.2 C9.1,202.2 0.7,193.8 0.7,183.5 L0.7,72 C0.7,61.7 9.1,53.3 19.4,53.3 C29.7,53.3 38,61.7 38,72 L38,183.6 C38,193.9 29.6,202.2 19.4,202.2 Z" id="Path"></path>
            <path d="M411.6,202.2 C401.3,202.2 392.9,193.8 392.9,183.5 L392.9,72 C392.9,61.7 401.3,53.3 411.6,53.3 C421.9,53.3 430.3,61.7 430.3,72 L430.3,183.6 C430.3,193.9 421.9,202.2 411.6,202.2 Z" id="Path"></path>
            <path d="M677.9,53.3 C636.8,53.3 603.4,86.7 603.4,127.8 C603.4,168.9 636.8,202.3 677.9,202.3 C719,202.3 752.4,168.9 752.4,127.8 C752.4,86.7 719,53.3 677.9,53.3 Z M677.9,167.9 C655.8,167.9 637.8,149.9 637.8,127.8 C637.8,105.7 655.8,87.7 677.9,87.7 C700,87.7 718,105.7 718,127.8 C718,149.9 700,167.9 677.9,167.9 Z" id="Shape" fill-rule="nonzero"></path>
            <path d="M557.3,156.2 C549.7,163.8 539.6,168 528.9,168 C506.8,168 488.8,150 488.8,127.9 C488.8,105.8 506.8,87.8 528.9,87.8 C539.6,87.8 549.7,92 557.3,99.5 C564,106.2 574.9,106.2 581.6,99.5 C588.3,92.8 588.3,81.9 581.6,75.2 C567.5,61.1 548.8,53.4 529,53.4 C487.9,53.4 454.5,86.8 454.5,127.9 C454.5,169 487.9,202.4 529,202.4 C548.9,202.4 567.6,194.7 581.7,180.6 C588.4,173.9 588.4,163 581.7,156.3 C574.9,149.5 564,149.5 557.3,156.2 Z" id="Path"></path>
            <path d="M19.4,37.7 C9.1,37.7 0.7,29.3 0.7,19 C0.7,8.7 9.1,0.3 19.4,0.3 C29.7,0.3 38.1,8.7 38.1,19 C38.1,29.3 29.6,37.7 19.4,37.7 Z" id="Path"></path>
            <path d="M411.6,37.7 C401.3,37.7 392.9,29.3 392.9,19 C392.9,8.7 401.3,0.3 411.6,0.3 C421.9,0.3 430.3,8.7 430.3,19 C430.3,29.3 421.9,37.7 411.6,37.7 Z" id="Path"></path>
            <path d="M108.8,259.6 C105.9,259.6 103.1,258.9 100.5,257.6 C96,255.4 92.7,251.5 91.1,246.8 C89.5,242.1 89.9,237 92.1,232.6 L115.8,185.1 L63.4,80.3 C58.8,71.1 62.5,59.9 71.7,55.3 C80.9,50.7 92.1,54.4 96.7,63.6 L136.5,143.3 L176.4,63.6 C181,54.4 192.2,50.7 201.4,55.3 C205.9,57.5 209.2,61.4 210.8,66.1 C212.4,70.8 212,75.9 209.8,80.3 L125.3,249.2 C122.3,255.6 115.9,259.6 108.8,259.6 Z" id="Path"></path>
        </g>
    </g>
</svg>